<?xml version="1.0" encoding="utf-8"?>
<!-- Generator: Adobe Illustrator 23.0.3, SVG Export Plug-In . SVG Version: 6.00 Build 0)  -->
<svg version="1.1" xmlns="http://www.w3.org/2000/svg" xmlns:xlink="http://www.w3.org/1999/xlink" x="0px" y="0px"
	 viewBox="0 0 360 360" style="enable-background:new 0 0 360 360;" xml:space="preserve">
<style type="text/css">
	.st0{display:none;}
	.st1{fill:#FFFFFF;}
</style>
<g id="Layer_1" class="st0">
	
		<image style="display:inline;overflow:visible;" width="4160" height="3120" xlink:href="0929192035.jpg"  transform="matrix(7.908628e-10 6.632040e-02 -6.632040e-02 7.908628e-10 270.1161 34.1964)">
	</image>
</g>
<g id="Layer_2">
	<g>
		<g>
			<path class="st1" d="M92.8,319.9c-2.9,0-9.2-0.6-14.6-5.4c-5.7-5.1-8.6-13.1-8.6-24V126.1c-0.1-8.3,3.9-24.6,19.5-26.1
				c0.5-0.1,15.4-2.4,12.9-24.8c-0.2-1.8,1.1-3.5,3-3.7c1.8-0.2,3.5,1.1,3.7,3c3.2,29.1-18.6,32.1-18.8,32.1
				c-13.6,1.3-13.6,18.7-13.6,19.4v164.4c0,8.8,2.1,15.2,6.3,18.9c4.8,4.3,11,3.7,11.1,3.7c0.1,0,0.3,0,0.4,0h92.1
				c1.8,0,3.3,1.5,3.3,3.3c0,1.8-1.5,3.3-3.3,3.3h-92C93.9,319.9,93.4,319.9,92.8,319.9z"/>
			<path class="st1" d="M267.2,319.9c-0.6,0-1.1,0-1.4-0.1h-92c-1.8,0-3.3-1.5-3.3-3.3c0-1.8,1.5-3.3,3.3-3.3H266c0.1,0,0.3,0,0.4,0
				c0,0,6.2,0.6,11-3.7c4.2-3.7,6.3-10.1,6.3-18.9V126.1c0-0.8-0.1-18.1-13.5-19.4c-0.3,0-22.1-3-18.9-32.1c0.2-1.8,1.9-3.2,3.7-3
				c1.8,0.2,3.2,1.8,3,3.7c-2.5,22.6,12.4,24.7,13,24.8c15.5,1.5,19.5,17.7,19.4,26.1v164.4c0,10.8-2.9,18.9-8.6,24
				C276.4,319.3,270.1,319.9,267.2,319.9z"/>
		</g>
		<path class="st1" d="M254.9,77.9H105.1c-5.8,0-10.6-4.4-10.6-9.8c0-5.4,4.7-9.8,10.6-9.8h149.8c5.8,0,10.6,4.4,10.6,9.8
			C265.4,73.5,260.7,77.9,254.9,77.9z M105.1,65c-2.1,0-3.9,1.4-3.9,3.1s1.8,3.1,3.9,3.1h149.8c2.1,0,3.9-1.4,3.9-3.1
			S257,65,254.9,65H105.1z"/>
		<path class="st1" d="M188.7,62.7c-1.8,0-3.3-1.5-3.3-3.3v-7.9c0-2.5-2.3-4.6-5.1-4.6h-0.7c-2.8,0-5.1,2.1-5.1,4.6v7.9
			c0,1.8-1.5,3.3-3.3,3.3c-1.8,0-3.3-1.5-3.3-3.3v-7.9c0-6.2,5.3-11.3,11.7-11.3h0.7c6.5,0,11.7,5.1,11.7,11.3v7.9
			C192.1,61.2,190.6,62.7,188.7,62.7z"/>
		<path class="st1" d="M119.3,316c-0.2,0-0.5-0.1-0.7-0.2l-41.1-19.6c-0.8-0.4-1.2-1.4-0.8-2.2l5.3-11c0.2-0.4,0.5-0.7,0.9-0.9
			c0.4-0.1,0.9-0.1,1.3,0.1l41.1,19.6c0.4,0.2,0.7,0.5,0.9,0.9c0.1,0.4,0.1,0.9-0.1,1.3l-5.3,11C120.5,315.7,119.9,316,119.3,316z
			 M80.5,294l38.1,18.1l3.8-8L84.3,286L80.5,294z"/>
		<path class="st1" d="M114.6,299.4C114.6,299.4,114.6,299.4,114.6,299.4c-0.5,0-0.9-0.2-1.2-0.5l-30.9-33.4
			c-0.6-0.7-0.6-1.7,0.1-2.4l9-8.3c0.3-0.3,0.7-0.5,1.2-0.4c0.4,0,0.9,0.2,1.2,0.5l30.9,33.4c0.6,0.7,0.6,1.7-0.1,2.4l-9,8.3
			C115.4,299.3,115,299.4,114.6,299.4z M86,264.5l28.7,30.9l6.5-6l-28.7-30.9L86,264.5z"/>
		<path class="st1" d="M126.1,315.2c-0.4,0-0.8-0.2-1.1-0.4c-0.3-0.3-0.5-0.7-0.5-1.2l-0.5-12.2c0-0.9,0.7-1.7,1.6-1.7l45.5-1.9
			c1-0.1,1.7,0.7,1.7,1.6l0.5,12.2c0,0.4-0.1,0.9-0.4,1.2c-0.3,0.3-0.7,0.5-1.2,0.5L126.1,315.2
			C126.1,315.2,126.1,315.2,126.1,315.2z M127.3,303l0.4,8.9l42.1-1.8l-0.4-8.9L127.3,303z"/>
		<path class="st1" d="M122,305.7c-0.2,0-0.4,0-0.6-0.1c-0.4-0.2-0.8-0.5-0.9-0.9l-5.2-11.1c-0.4-0.8,0-1.8,0.8-2.2l41.2-19.3
			c0.4-0.2,0.9-0.2,1.3-0.1c0.4,0.2,0.8,0.5,0.9,0.9l5.2,11.1c0.4,0.8,0,1.8-0.8,2.2l-41.2,19.3C122.5,305.7,122.3,305.7,122,305.7z
			 M119.1,293.8l3.8,8.1L161,284l-3.8-8.1L119.1,293.8z"/>
		<path class="st1" d="M200.6,315c-0.2,0-0.5-0.1-0.7-0.2l-41.1-19.6c-0.8-0.4-1.2-1.4-0.8-2.2l5.3-11c0.2-0.4,0.5-0.7,0.9-0.9
			c0.4-0.1,0.9-0.1,1.3,0.1l41.1,19.6c0.4,0.2,0.7,0.5,0.9,0.9c0.1,0.4,0.1,0.9-0.1,1.3l-5.3,11C201.8,314.6,201.2,315,200.6,315z
			 M161.8,292.9l38.1,18.1l3.8-8l-38.1-18.1L161.8,292.9z"/>
		<path class="st1" d="M207.1,291.2c-0.1,0-0.1,0-0.1,0l-45.3-4c-0.9-0.1-1.6-0.9-1.5-1.8l1.1-12.2c0-0.4,0.3-0.8,0.6-1.1
			c0.3-0.3,0.8-0.4,1.2-0.4l45.3,4c0.4,0,0.8,0.3,1.1,0.6s0.4,0.8,0.4,1.2l-1.1,12.2C208.7,290.6,208,291.2,207.1,291.2z
			 M163.6,284.1l42,3.7l0.8-8.9l-42-3.7L163.6,284.1z"/>
		<path class="st1" d="M210.5,317.3c-0.2,0-0.4,0-0.6-0.1c-0.4-0.2-0.7-0.5-0.9-0.9l-5-11.2c-0.4-0.8,0-1.8,0.8-2.2l41.6-18.5
			c0.8-0.4,1.8,0,2.2,0.8l5,11.2c0.2,0.4,0.2,0.9,0,1.3s-0.5,0.7-0.9,0.9l-41.6,18.5C210.9,317.3,210.7,317.3,210.5,317.3z
			 M207.7,305.3l3.6,8.1l38.5-17.2l-3.6-8.1L207.7,305.3z"/>
		<path class="st1" d="M216,300.4c-0.2,0-0.4,0-0.6-0.1l-11.5-4.2c-0.4-0.2-0.8-0.5-0.9-0.9c-0.2-0.4-0.2-0.9-0.1-1.3l15.5-42.8
			c0.2-0.4,0.5-0.8,0.9-0.9c0.4-0.2,0.9-0.2,1.3-0.1l11.5,4.2c0.9,0.3,1.3,1.3,1,2.1l-15.5,42.8C217.3,300,216.7,300.4,216,300.4z
			 M206.6,293.5l8.4,3l14.3-39.7l-8.4-3L206.6,293.5z"/>
		<path class="st1" d="M267.2,297c-0.2,0-0.5-0.1-0.7-0.2l-41.1-19.6c-0.8-0.4-1.2-1.4-0.8-2.2l5.3-11c0.2-0.4,0.5-0.7,1-0.9
			c0.4-0.1,0.9-0.1,1.3,0.1l41.1,19.6c0.4,0.2,0.7,0.5,0.9,0.9s0.1,0.9-0.1,1.3l-5.3,11C268.5,296.6,267.9,297,267.2,297z
			 M228.4,275l38.1,18.1l3.8-8L232.2,267L228.4,275z"/>
		<path class="st1" d="M232.4,319c-0.4,0-0.8-0.1-1.1-0.4c-0.3-0.3-0.5-0.7-0.6-1.1l-0.8-12.2c-0.1-0.9,0.6-1.7,1.6-1.8l45.4-2.9
			c0.5,0,0.9,0.1,1.2,0.4c0.3,0.3,0.5,0.7,0.6,1.1l0.8,12.2c0.1,0.9-0.6,1.7-1.6,1.8l-45.4,2.9C232.5,319,232.4,319,232.4,319z
			 M233.4,306.7l0.6,8.9l42.1-2.7l-0.6-8.9L233.4,306.7z"/>
		<path class="st1" d="M134.7,279.7c-0.8,0-1.5-0.6-1.6-1.4l-2.2-12c-0.2-0.9,0.4-1.8,1.3-1.9l44.7-8.3c0.4-0.1,0.9,0,1.3,0.3
			c0.4,0.3,0.6,0.6,0.7,1.1l2.2,12c0.1,0.4,0,0.9-0.3,1.3c-0.3,0.4-0.6,0.6-1.1,0.7l-44.7,8.3C134.9,279.7,134.8,279.7,134.7,279.7z
			 M134.4,267.3l1.6,8.7l41.5-7.7l-1.6-8.7L134.4,267.3z"/>
		<path class="st1" d="M273.9,302.2c-0.3,0-0.6-0.1-0.9-0.2c-0.4-0.2-0.7-0.6-0.8-1l-11.1-44.1c-0.2-0.9,0.3-1.8,1.2-2l11.9-3
			c0.4-0.1,0.9,0,1.3,0.2c0.4,0.2,0.7,0.6,0.8,1l11.1,44.1c0.1,0.4,0,0.9-0.2,1.3c-0.2,0.4-0.6,0.7-1,0.8l-11.9,3
			C274.2,302.1,274,302.2,273.9,302.2z M264.8,257.6l10.3,40.9l8.6-2.2l-10.3-40.9L264.8,257.6z"/>
		<path class="st1" d="M124.5,286.7c-0.2,0-0.4,0-0.6-0.1l-11.4-4.4c-0.9-0.3-1.3-1.3-1-2.2l16.3-42.5c0.3-0.9,1.3-1.3,2.2-1
			l11.4,4.4c0.4,0.2,0.7,0.5,0.9,0.9c0.2,0.4,0.2,0.9,0,1.3l-16.3,42.5c-0.2,0.4-0.5,0.7-0.9,0.9C125,286.6,124.8,286.7,124.5,286.7
			z M115.3,279.7l8.3,3.2l15.1-39.4l-8.3-3.2L115.3,279.7z"/>
		<path class="st1" d="M208.3,277.8c-0.3,0-0.6-0.1-0.9-0.3L169,253.1c-0.8-0.5-1-1.5-0.5-2.3l6.6-10.3c0.2-0.4,0.6-0.6,1-0.7
			c0.4-0.1,0.9,0,1.3,0.2l38.4,24.4c0.8,0.5,1,1.5,0.5,2.3l-6.6,10.3c-0.2,0.4-0.6,0.6-1,0.7C208.5,277.8,208.4,277.8,208.3,277.8z
			 M172.2,251.2l35.6,22.6l4.8-7.5L177,243.7L172.2,251.2z"/>
		<g>
			<path class="st1" d="M135.8,205h4.4v1.3c0,4.3,2.5,5.7,5,5.7c2.5,0,4.9-1.4,4.9-5.6v-18.5h-7.9v-3.8h12.3v22.4
				c0,6.8-4.8,9.6-9.4,9.6c-4.6,0-9.3-2.8-9.3-9.6V205z"/>
			<path class="st1" d="M183.5,206.5h-11.9l-3.1,9H164l11.3-31.5h4.6l11.3,31.5h-4.6L183.5,206.5z M177.6,188.4c0,0-0.7,2.9-1.2,4.5
				l-3.5,10h9.5l-3.5-10C178.3,191.3,177.6,188.4,177.6,188.4L177.6,188.4z"/>
			<path class="st1" d="M201.2,184.1h9.6c3.3,0,4.7,0.3,5.9,0.7c3.2,1.2,5.3,4.4,5.3,8.5c0,4-2.2,7.4-5.7,8.5v0.1
				c0,0,0.4,0.4,0.9,1.4l6.7,12.2h-5l-6.6-12.5h-6.7v12.5h-4.4V184.1z M211.9,199.2c3.4,0,5.6-2.2,5.6-5.7c0-2.3-0.9-4-2.5-4.9
				c-0.8-0.4-1.9-0.7-4.3-0.7h-5.1v11.3H211.9z"/>
		</g>
		<g>
			<path class="st1" d="M109.4,142.8h4.9c4.4,0,7.3,2.6,7.3,7.1s-2.9,7.1-7.3,7.1h-4.9V142.8z M114.1,154.8c2.9,0,4.7-1.7,4.7-4.9
				c0-3.2-1.9-4.9-4.7-4.9H112v9.8H114.1z"/>
			<path class="st1" d="M128.2,142.8h2.6v14.2h-2.6V142.8z"/>
			<path class="st1" d="M138.7,153.4c0,0,1.5,1.5,3.6,1.5c1.1,0,2.1-0.6,2.1-1.7c0-2.5-6.7-2.1-6.7-6.5c0-2.4,2-4.1,4.8-4.1
				c2.8,0,4.3,1.5,4.3,1.5l-1.1,2.1c0,0-1.4-1.2-3.1-1.2c-1.2,0-2.1,0.7-2.1,1.7c0,2.5,6.7,1.9,6.7,6.5c0,2.3-1.7,4.2-4.7,4.2
				c-3.2,0-4.9-1.9-4.9-1.9L138.7,153.4z"/>
			<path class="st1" d="M159.9,142.6c3.5,0,5.3,1.9,5.3,1.9l-1.2,1.9c0,0-1.6-1.5-3.9-1.5c-3,0-4.8,2.2-4.8,4.9
				c0,2.7,1.8,5.1,4.8,5.1c2.5,0,4.1-1.8,4.1-1.8l1.4,1.9c0,0-2,2.3-5.6,2.3c-4.4,0-7.4-3.2-7.4-7.4
				C152.5,145.8,155.7,142.6,159.9,142.6z"/>
			<path class="st1" d="M171.9,142.8h2.6v14.2h-2.6V142.8z"/>
			<path class="st1" d="M182.1,142.8h5.5c2.7,0,4.5,1.9,4.5,4.6c0,2.8-1.9,4.7-4.5,4.7h-2.9v4.9h-2.6V142.8z M187.1,149.9
				c1.5,0,2.4-1,2.4-2.4c0-1.5-0.9-2.4-2.3-2.4h-2.5v4.9H187.1z"/>
			<path class="st1" d="M198.4,142.8h2.6v12h6.2v2.2h-8.7V142.8z"/>
			<path class="st1" d="M213.2,142.8h2.6v14.2h-2.6V142.8z"/>
			<path class="st1" d="M223.5,142.8h2.6l5.4,8.2c0.5,0.8,1.2,2.2,1.2,2.2h0c0,0-0.1-1.4-0.1-2.2v-8.2h2.6v14.2h-2.6l-5.4-8.2
				c-0.5-0.8-1.2-2.2-1.2-2.2h0c0,0,0.1,1.4,0.1,2.2v8.2h-2.6V142.8z"/>
			<path class="st1" d="M242.7,142.8h8.5v2.2h-5.9v3.7h4.8v2.2h-4.8v3.8h6.3v2.2h-8.8V142.8z"/>
		</g>
		<path class="st1" d="M267.9,172.9H92.1c-1.2,0-2.2-1-2.2-2.2v-41c0-1.2,1-2.2,2.2-2.2h175.8c1.2,0,2.2,1,2.2,2.2v41
			C270.1,171.9,269.1,172.9,267.9,172.9z M94.3,168.5h171.3V132H94.3V168.5z"/>
	</g>
</g>
</svg>
